PathFileType	4	(X/Y/Z)	Patient4_TMGait_0pt6_01_left_27.trc.trc
DataRate	CameraRate	NumFrames	NumMarkers	Units	OrigDataRate	OrigDataStartFrame	OrigNumFrames
85.365853658537	85.365853658537	4	33	mm	85.365853658537	1	       141
Frame#	Time	Sacral			L.Shoulder			Chest			R.Shoulder			Neck			R.ASIS			L.ASIS			R.Thigh.Superior			R.Thigh.Lateral			R.Thigh.Inferior			R.Patella			L.Thigh.Superior			L.Thigh.Lateral			L.Thigh.Inferior			L.Patella			L.Shank.Superior			L.Shank.Lateral			L.Shank.Inferior			R.Shank.Superior			R.Shank.Lateral			R.Shank.Inferior			R.Heel			R.Midfoot.Superior			R.Midfoot.Lateral			R.Toe			L.Heel			L.Midfoot.Lateral			L.Midfoot.Superior			L.Toe			L.Elbow			L.Wrist			R.Elbow			R.Wrist			
		X1	Y1	Z1	X2	Y2	Z2	X3	Y3	Z3	X4	Y4	Z4	X5	Y5	Z5	X6	Y6	Z6	X7	Y7	Z7	X8	Y8	Z8	X9	Y9	Z9	X10	Y10	Z10	X11	Y11	Z11	X12	Y12	Z12	X13	Y13	Z13	X14	Y14	Z14	X15	Y15	Z15	X16	Y16	Z16	X17	Y17	Z17	X18	Y18	Z18	X19	Y19	Z19	X20	Y20	Z20	X21	Y21	Z21	X22	Y22	Z22	X23	Y23	Z23	X24	Y24	Z24	X25	Y25	Z25	X26	Y26	Z26	X27	Y27	Z27	X28	Y28	Z28	X29	Y29	Z29	X30	Y30	Z30	X31	Y31	Z31	X32	Y32	Z32	X33	Y33	Z33	

1	32.870000000000	749.708787359440	1013.691978906209	525.753645208862	897.769148160881	1442.507635577119	334.465886222481	1019.285065562619	1374.874184780018	482.281977170000	955.394659558075	1444.142032639663	665.049298359242	897.404592949282	1501.372845867779	489.995137062210	982.343167181444	947.158467394432	625.760008090571	950.057038678086	969.824487830040	353.358304525610	1005.915330079397	740.762256246653	597.078777930232	915.699474866155	636.201275834519	654.184777091676	988.641355630207	580.646646530753	574.067554756348	982.911961194235	494.440561831616	577.606930661480	1037.066805746967	792.421430019258	377.054014467799	991.785834473627	664.988978039944	298.051100446079	1101.231404030680	605.600986710585	349.195126602607	1118.623475463488	517.736615688657	340.722864550548	1060.143029166790	445.136191077783	338.069358003514	923.210113925041	383.039276761228	297.361524747032	933.460179436245	252.678894247755	352.100175439256	954.503244441042	406.391645110618	580.022045668373	881.080437423179	301.505374940966	634.899811995502	926.297868005362	208.761792616937	569.602307387759	791.724274961526	43.898209511214	528.210896900209	964.626330605449	97.442185439827	567.824268528059	874.919528996089	36.781878094244	604.086369612853	1083.406590907385	42.188519371559	595.433085063347	755.898757518331	163.452182969783	400.817177301301	813.871930857967	122.421092887619	318.199351780436	918.440672488622	145.035430334303	332.276663420980	1008.514467690718	42.263862184858	302.719378465998	834.660174537992	1086.843797122821	236.303796234786	857.509836316380	828.161588503731	237.632673009142	1016.612644233089	1100.023523520232	786.885656923249	1238.502217067725	970.070316610308	752.601307745888	
2	32.881714285714	748.620817072536	1014.210973057501	526.556144880583	897.010440739078	1442.652097028766	335.390380149918	1019.203858895405	1374.494741616647	482.416684189061	956.533069351227	1443.815174104436	665.575053420018	897.615026812269	1501.309201323542	490.777483375346	981.076115106983	946.726290628695	625.931047042357	948.611097448904	969.778813932956	353.585256135510	1002.242184960549	740.056564128039	596.999576667051	911.176112122262	636.263433593679	654.622695385739	983.187261626074	580.121620277794	574.387420922521	976.588208531691	494.205470031345	578.102718531671	1035.840593155440	793.366508821245	377.560286954271	991.551633827545	665.485362279319	298.477070565727	1100.860585076183	606.771312260797	350.117687275529	1119.465522368223	520.660172850062	341.516326973613	1065.092089585768	447.054579617073	338.207372937377	933.230284073483	376.898892516738	297.274540864094	952.354434248999	247.769766056321	350.949489818623	948.066980673789	406.378501190965	580.538130924631	874.100618412654	301.552092391955	635.262896175196	919.154270915902	208.715981767660	569.894208459515	784.462843622025	43.919205931205	528.475795567226	957.251729213469	97.407204343103	567.910944816641	867.495986258516	36.777147376834	604.133628566248	1075.961590310529	42.104652283955	595.486463954675	782.757832573118	146.739485539977	399.519218825009	842.383247923213	110.978109950648	316.249640573974	944.538279188108	140.356359475847	330.289041562359	1040.583818552391	45.009836800287	299.289063387591	825.653384090864	1088.881305011617	238.380403375474	842.417913167145	829.923439762056	242.124871500755	1026.544149797836	1101.965090456369	786.358289661742	1253.765188957138	985.097888770544	749.899991148345	
3	32.893428571429	747.542858483664	1014.688341761616	527.314404182416	896.276036883524	1442.772190795496	336.287312736872	1019.123042462072	1374.084233930446	482.540006222503	957.645127480574	1443.448688849794	666.080456783837	897.820028517806	1501.212500744833	491.555393486492	979.829188166344	946.286704921973	626.087726625869	947.195001075410	969.681662960702	353.778200448842	998.661366651017	739.351060689690	596.929280791353	906.757037603619	636.299922150602	655.051279767272	977.855349992387	579.583078641593	574.706193791126	970.397769301959	493.951139357607	578.586240318767	1034.550948518149	794.145007958005	378.039783086454	991.184001024229	665.852877109529	298.884324330106	1100.273201349975	607.724402190922	351.114124794895	1120.084289469118	523.404647115503	342.386169980050	1069.819391364296	448.901297089160	338.415430662927	943.213275142805	370.801450605850	297.113660898658	971.078433239034	243.047043268031	349.848521119537	941.742708706799	406.334470545517	581.030238384563	867.243131080602	301.585572815929	635.614514304680	912.114459691557	208.654752412662	570.169875808749	777.277561291275	43.935939408625	528.721843246185	949.963130800037	97.371644474138	567.992693732864	860.161226579118	36.772987021450	604.181251324999	1068.604859447343	42.019046617823	595.539666584411	809.559161521153	130.400285896517	398.104355684446	870.848639482365	99.912445413302	314.280046628184	970.466089707776	135.973850954128	328.397852515355	1072.363375732523	48.115373523267	296.137381118936	816.806246338328	1090.904387068161	240.449825606413	827.577646997545	831.700438922083	246.544586139059	1036.321798093863	1103.888074866856	785.798168588157	1268.666512763793	999.955007679283	747.206492685740	
4	32.905142857143	746.489743110324	1015.085981164293	527.985532742000	895.586550735134	1442.846657920280	337.123515086943	1019.042759415823	1373.615793478420	482.632888064629	958.706059245833	1443.009187090593	666.536399831875	898.013052455764	1501.054162597022	492.312376688868	978.624225636816	945.830728926107	626.202215156289	945.828972390491	969.489340777794	353.897528972366	995.241023065602	738.639516399288	596.867305818668	902.507358020412	636.292597790477	655.451928279499	972.718482594520	579.017835177651	575.012683115698	964.417014457859	493.659457833980	579.036750232863	1033.115352427234	794.596747545555	378.463810028045	990.532747218959	665.968291325548	299.249596030338	1099.260770130942	608.266482987691	352.229656657316	1120.265573173180	525.825038704012	343.391025808600	1074.114881111711	450.628688251558	338.741160173555	953.123314753690	364.803667971327	296.841560270056	989.504474334917	238.727660932057	348.846719455800	935.581539436066	406.236024031174	581.471947731239	860.564907875853	301.602665798735	635.943306686407	905.214360098611	208.568934327944	570.415327090938	770.175191677108	43.949715097286	528.936919930951	942.775290878826	97.335261684446	568.067990150774	852.931588274645	36.769619855881	604.229386818587	1061.354053454564	41.929384554615	595.592784311688	836.318290974096	114.840293545775	396.533352999595	899.270323957154	89.615033642703	312.320257445853	996.111089542146	132.207450940897	326.696467464762	1103.616083032709	51.957763038489	293.495581540567	808.260508582738	1092.903441003863	242.500368826180	813.190637341268	833.515289121918	250.825683666147	1045.830713348586	1105.796447124678	785.156126858725	1282.891173418885	1014.555046895309	744.508089461039	
